# xmcd CD database file
#
# Track frame offsets:
#	150
#	28192
#	47279
#	72557
#	83533
#	94799
#	117225
#	136429
#	153549
#	168863
#	195640
#	220140
#	230165
#	252543
#	271095
#	288361
#	319751
#
# Disc length: 4457 seconds
#
# Revision: 0
# Processed by: cddbd v1.5.2PL0 Copyright (c) Steve Scherf et al.
# Submitted via: CDex 1.51
#
DISCID=f2116711
DTITLE=Various Artist - Jazz 101 CD 1
DYEAR=1900
DGENRE=Jazz
TTITLE0=The Smokey Life
TTITLE1=My Inspiraton
TTITLE2=Don't Explain
TTITLE3=You're Making Me Crazy
TTITLE4=Red Shoes
TTITLE5=I Must
TTITLE6=Summertime
TTITLE7=With You I'm Born Again
TTITLE8=Haze
TTITLE9=Detour Ahead
TTITLE10=Cry Me a River
TTITLE11=Somebody Loves Me
TTITLE12=Keep on Groovin'
TTITLE13=Baby I Need You Now
TTITLE14=Sway
TTITLE15=Point of No Return
TTITLE16=Swingin' The Blues
EXTD=
EXTT0=
EXTT1=
EXTT2=
EXTT3=
EXTT4=
EXTT5=
EXTT6=
EXTT7=
EXTT8=
EXTT9=
EXTT10=
EXTT11=
EXTT12=
EXTT13=
EXTT14=
EXTT15=
EXTT16=
PLAYORDER=
